<svg id="Calque_1" data-name="Calque 1" xmlns="http://www.w3.org/2000/svg" viewBox="0 0 137.6 140.6"><defs><style>.cls-1{fill:#2d2c64;}</style></defs><title>Plan de travail 1</title><polygon class="cls-1" points="91.22 115.61 111.54 115.61 111.54 98.83 91.22 87.08 91.22 115.61"/><polygon class="cls-1" points="83.06 71.15 83.06 50.73 54.16 50.73 54.16 71.15 68.61 62.6 83.06 71.15"/><polygon class="cls-1" points="25.65 98.84 25.65 115.61 46 115.61 46 87.06 25.65 98.84"/><path class="cls-1" d="M77.53,87.81H59.69a8.92,8.92,0,1,1,17.84,0M77.18,114H69.53V96.2h7.65Zm-9.49,0H60V96.2h7.65ZM48.12,77.19V115.6h41V77.19L68.61,65.07Z"/><polygon class="cls-1" points="67.55 17.86 67.55 21.15 63.3 21.15 63.3 23.28 67.55 23.28 67.55 29.49 57.24 48.71 79.97 48.71 69.67 29.49 69.67 23.28 73.92 23.28 73.92 21.15 69.67 21.15 69.67 17.86 67.55 17.86"/></svg>