<svg id="Calque_1" data-name="Calque 1" xmlns="http://www.w3.org/2000/svg" xmlns:xlink="http://www.w3.org/1999/xlink" viewBox="0 0 137.6 140.6"><defs><style>.cls-1{fill:none;}.cls-2{clip-path:url(#clip-path);}.cls-3{fill:#f28f83;}</style><clipPath id="clip-path"><rect class="cls-1" x="26.77" y="31.56" width="86.23" height="83.06"/></clipPath></defs><title>Plan de travail 1 copie</title><g class="cls-2"><path class="cls-3" d="M57.88,43.23H56.5V62.55H54.72V43.23h-2V62.55H50.94V43.23H49V62.55H47.23V43.23H45.44s-2.75,20.59-1.19,22.92A9.18,9.18,0,0,0,49.83,70l-2.09,40.53h0s0,0,0,.08A3.28,3.28,0,0,0,51,113.9h1.25a3.27,3.27,0,0,0,3.28-3.27s0,0,0-.08h0l-2.11-40.5.07,0a9.23,9.23,0,0,0,5.54-3.86c1.56-2.33-1.18-22.92-1.18-22.92"/><path class="cls-3" d="M40.46,56h-1.4V74.28H37.61V56H35.27V74.28H33.94V56h-2.2V74.28H30.31V56H28.48s-2.82,19.62-1.22,22a8.62,8.62,0,0,0,5.34,4L30.76,109.5h0s0,0,0,.06a3,3,0,0,0,3.06,3.25H35.1a3,3,0,0,0,3.08-3.25v-.06L36.3,82l.07,0a8.72,8.72,0,0,0,5.31-4c1.6-2.39-1.22-22-1.22-22"/><path class="cls-3" d="M72,111.24l-1.6-39.8s-.13-36-.13-39.12c0-2.13-2.35.08-3.34,2.12s-5,11.15-5,20.59c0,3.53-.07,8.25-.07,10.49,0,4,4.27,2.2,4.27,8l-1.95,37.75v.07a3.28,3.28,0,0,0,3.28,3.28h1.26A3.27,3.27,0,0,0,72,111.31a.17.17,0,0,0,0-.07Z"/></g><path class="cls-3" d="M79.42,67.46a.34.34,0,0,1-.37.17,3.55,3.55,0,0,1-.55-.23c-.08-.06-.16-.1-.24-.15l-.13-.09A8.8,8.8,0,0,1,76.76,66a10.72,10.72,0,0,1-2.59-4.71,8.27,8.27,0,0,1-.28-1.64,8.82,8.82,0,0,1,0-1.53,14.87,14.87,0,0,1,.54-2.67,9.34,9.34,0,0,1,.82-1.83l.48-.78a.35.35,0,0,1,.46-.09.36.36,0,0,1,.2.41s-.14.41-.25.84a9.69,9.69,0,0,0-.3,1.71,19.45,19.45,0,0,0-.11,2.45,12.32,12.32,0,0,0,.06,1.32,7.4,7.4,0,0,0,.27,1.24,23.31,23.31,0,0,0,1.81,4.46l.46.67c.19.28.38.54.53.72a3.4,3.4,0,0,0,.42.45.32.32,0,0,1,.1.4M92.16,57c0-6.61-5.12-12.31-10.09-12.36h0C77.1,44.65,72,50.35,72,57,72,63,74.57,67.7,78.17,69.28c.38.18,2.07.74,2.07.74l-2.08,40.53v.08a3.27,3.27,0,0,0,3.28,3.27h1.25A3.27,3.27,0,0,0,86,110.63s0,0,0-.08h0l-2.1-40.5,2.07-.77C89.54,67.7,92.16,63,92.16,57"/><path class="cls-3" d="M99.63,79a3.43,3.43,0,0,1-.48-.08l-.21-.08-.12-.05a7.64,7.64,0,0,1-4.14-3.92,6.11,6.11,0,0,1-.51-1.24,10.54,10.54,0,0,1-.24-1.22,21.77,21.77,0,0,1-.07-3,7.06,7.06,0,0,1,.32-1.6l.25-.71a.27.27,0,0,1,.34-.15.34.34,0,0,1,.25.3A4.53,4.53,0,0,0,95,68,7.34,7.34,0,0,0,95,69.42a24.75,24.75,0,0,0,.37,2.73c.08.33.17.67.29,1a5.57,5.57,0,0,0,.41.93,20.36,20.36,0,0,0,2.23,3.23c.17.14.33.3.48.43a5.93,5.93,0,0,0,.54.47,2.68,2.68,0,0,0,.41.29.28.28,0,0,1,.15.3.26.26,0,0,1-.27.2m12.29-9.92c0-6.61-5.12-11.72-10.08-11.77h0c-5,0-10.09,5.16-10.09,11.77,0,5.93,2.52,10.52,6,12.2h0c.39.18,2.23,1.2,2.23,1.2L98.39,110.3h0a.31.31,0,0,1,0,.07c0,1.82.92,3.3,2.72,3.3h1.26c1.81,0,2.76-1.44,2.76-3.25v-.06l-1.59-27.83,2.33-1.18h0c3.52-1.63,6.07-6.26,6.07-12.24"/></svg>