<svg id="Calque_1" data-name="Calque 1" xmlns="http://www.w3.org/2000/svg" viewBox="0 0 137.6 140.6"><defs><style>.cls-1{fill:#2d2c64;}.cls-2{fill:#f28f83;}</style></defs><title>Plan de travail 1 copie 3</title><path class="cls-1" d="M66,72.83a15.88,15.88,0,0,0-1.72-3.09q2.5-3.34,4.87-6.77c1.58-2.28,3.1-4.55,4.58-6.81-.69,2.34-1.35,4.78-2,7.31s-1.21,5-1.7,7.55-.88,4.9-1.18,7.21a54,54,0,0,0-.48,6.29c-.07-1.39-.19-2.76-.38-4.13a31,31,0,0,0-.78-4A25.47,25.47,0,0,0,66,72.83M102,60.07a.8.8,0,0,0-.41-.38.88.88,0,0,0-.65,0c-2.08.81-4,1.5-5.72,2.07s-3.32,1-4.76,1.41-2.74.64-3.89.83-2.19.33-3.1.4A9.31,9.31,0,0,0,83.86,63,6.59,6.59,0,0,0,84,61.57a1.93,1.93,0,0,0-.22-1,.67.67,0,0,0-.68-.35,2.15,2.15,0,0,0-1.73.92A5.76,5.76,0,0,0,80.84,64a1.77,1.77,0,0,1,0,.23c0,.08,0,.17,0,.27a14.14,14.14,0,0,1-2.15-.19l-1-.19a1,1,0,0,0-.92.26,1.33,1.33,0,0,0-.42.82,1.52,1.52,0,0,0,.17.93,1.19,1.19,0,0,0,.86.61,13.78,13.78,0,0,0,2.67.45c-.39,1.12-.9,2.41-1.51,3.88l-2,4.75c-.7,1.7-1.43,3.47-2.19,5.34s-1.47,3.74-2.13,5.64q-1.12.27-1.89.42l-.18,0a13.12,13.12,0,0,1-.14-2.4A43,43,0,0,1,70.43,80c.25-1.83.6-3.8,1-5.93s1-4.28,1.52-6.48,1.18-4.39,1.81-6.58,1.28-4.26,1.93-6.21,1.29-3.75,1.91-5.37,1.16-2.95,1.66-4c.17-.31.34-.62.52-.93l.51-.92a2.66,2.66,0,0,1,.5-.54,4,4,0,0,0,.23-1.87,1.16,1.16,0,0,0-.46-.79,1.7,1.7,0,0,0-1-.12c-.2-.13-.47,0-.79.43a11.5,11.5,0,0,0-1.12,1.87c-.43.83-.88,1.86-1.36,3.06s-1,2.56-1.5,4.06c-.8,1.31-1.7,2.7-2.68,4.18s-2,3-3.1,4.6-2.22,3.19-3.39,4.84-2.38,3.29-3.6,4.94a10.11,10.11,0,0,0-4.87-2.74,13.79,13.79,0,0,0-6.92.35,2.79,2.79,0,0,0-1.63.92A1.86,1.86,0,0,0,49.21,68a1.14,1.14,0,0,0,.42.87.75.75,0,0,0,.89,0,14.18,14.18,0,0,1,3.69-1.5,8.93,8.93,0,0,1,3.12-.21,6.42,6.42,0,0,1,2.55.85A8.81,8.81,0,0,1,62,69.7c-1.32,1.76-2.67,3.47-4,5.14s-2.67,3.24-4,4.72-2.55,2.84-3.78,4.08-2.37,2.3-3.45,3.2a19.35,19.35,0,0,1-3,2.1,5.51,5.51,0,0,1-2.4.79A5.66,5.66,0,0,1,38.19,89a6,6,0,0,1-2.06-2.1,8.61,8.61,0,0,1-1-2.95A12.23,12.23,0,0,1,35,80.62a11.17,11.17,0,0,1,.79-3.12,7.13,7.13,0,0,1,1.59-2.41,4.52,4.52,0,0,1,2.32-1.2,4.82,4.82,0,0,1,3,.52,5,5,0,0,0,2,.6A2,2,0,0,0,46,74.72a1,1,0,0,0,.44-.85A2,2,0,0,0,46,72.75a3.87,3.87,0,0,0-1.17-1.08,5.76,5.76,0,0,0-2-.73,5.92,5.92,0,0,0-3.43.31,7.94,7.94,0,0,0-2.82,2,11.58,11.58,0,0,0-2.06,3.16,14.6,14.6,0,0,0-1.13,3.82,14.08,14.08,0,0,0-.07,3.94,9.49,9.49,0,0,0,1.16,3.53A7.6,7.6,0,0,0,37,90.31a8,8,0,0,0,4,1.2,7.52,7.52,0,0,0,4.27-1.45,34.8,34.8,0,0,0,5.39-4.32,87.75,87.75,0,0,0,6.08-6.48q3.18-3.74,6.39-7.93a19.26,19.26,0,0,1,2,4.51,38,38,0,0,1,1.14,5c.26,1.64.43,3.18.51,4.59s.13,2.52.13,3.32a2.71,2.71,0,0,0,.33,1.45,2.37,2.37,0,0,0,.23.3,1.75,1.75,0,0,0,.21.82c.2.33.55.39,1,.19l2.3-.91c-.41,1.32-.77,2.61-1.07,3.89s-.53,2.52-.69,3.71a27.22,27.22,0,0,0-.23,3.4,13.3,13.3,0,0,0,.31,3,4.58,4.58,0,0,0,1.82,2.89,4.73,4.73,0,0,0,3.23.76,10,10,0,0,0,3.92-1.41,30.57,30.57,0,0,0,4.17-3c1.39-1.17,2.74-2.41,4.05-3.74s2.49-2.59,3.55-3.76,2-2.19,2.68-3a14.44,14.44,0,0,1,1.43-1.53,2.28,2.28,0,0,0,1-1.42,1.57,1.57,0,0,0-.23-1.2,1.07,1.07,0,0,0-1-.41,1.7,1.7,0,0,0-1.23.91l-.63,1c-.35.55-.74,1.16-1.18,1.82L89.66,94.4a12.6,12.6,0,0,1-.94,1.27c-.89,1-1.91,2.1-3,3.25A34,34,0,0,1,82,102.15a23,23,0,0,1-4.19,2.51,11.2,11.2,0,0,1-4.5,1,1.62,1.62,0,0,1-1.69-1.29,9.85,9.85,0,0,1-.25-3.57,34.64,34.64,0,0,1,.86-5.21q.68-3,1.65-6.23c.64-.25,1.26-.49,1.86-.7a15.37,15.37,0,0,1,1.92-.55c.67-.15,1.41-.29,2.19-.4s1.72-.21,2.78-.29a1.29,1.29,0,0,0,1-.45,1.47,1.47,0,0,0,.36-.89,1.21,1.21,0,0,0-1.23-1.28,8.63,8.63,0,0,0-.95.14l-1.87.32-2.43.45-2.63.54q1-3,2-5.87c.7-1.94,1.37-3.76,2-5.46s1.26-3.21,1.82-4.55,1-2.41,1.37-3.2a24.42,24.42,0,0,0,4.29-.45c1.46-.28,2.88-.61,4.27-1s2.71-.81,3.94-1.27,2.33-.9,3.3-1.33,1.76-.8,2.38-1.12a13.2,13.2,0,0,0,1.19-.66,1.88,1.88,0,0,0,.53-.69.8.8,0,0,0,0-.61"/><path class="cls-2" d="M76.07,31.33h0l-.39.06-.58-.13a7.77,7.77,0,0,1,1,.06M25.72,85a30.36,30.36,0,0,1-1.56-5.29.33.33,0,0,0,.05-.15s0,0,0,0c2.35-1.8,3.51-5.46,3.87-8.28,0-.37-.44-.78-.77-.47A11.81,11.81,0,0,0,23.73,77,34.08,34.08,0,0,1,24,67.41a.41.41,0,0,0,.23-.09,15.94,15.94,0,0,0,4.16-4.15c.81-1.2,1.87-2.75,1.69-4.24a.45.45,0,0,0-.7-.32,14.21,14.21,0,0,0-4.59,5.16c.15-.57.31-1.14.49-1.72a60.27,60.27,0,0,1,4.44-10.7.37.37,0,0,0,.16-.09l.13-.14a.45.45,0,0,0,.24.07c3.82-.12,7.47-3.16,9.76-6a.48.48,0,0,0-.41-.77c-3.49.08-6.17,2-8.43,4.39a44.16,44.16,0,0,1,5.25-7,30.59,30.59,0,0,1,2.62-2.49.37.37,0,0,0,.18.14c3.39,1.45,7.87.4,11-1.23a.49.49,0,0,0-.09-.93,19.19,19.19,0,0,0-8.92.35,34,34,0,0,1,12.15-5.2.42.42,0,0,0,.08.28c2.29,2.89,7,3.84,10.45,3.63a.48.48,0,0,0,.26-.85,23.25,23.25,0,0,0-7.48-3.66,57.11,57.11,0,0,1,13.14-.25s0,0,0,0c1.79.95,3.65,2.24,5.68,2.6a13.08,13.08,0,0,0,5.23-.53c.54-.13.39-.8,0-1a.27.27,0,0,0,0-.11,7.22,7.22,0,0,0-4.14-2.34c-1.81-.31-3.58.2-5.39.32a53.26,53.26,0,0,0-9.87-.3c3.53-1.9,7.36-3.84,9.94-6.95a.53.53,0,0,0-.46-.85c-5,.05-9.81,3.14-11.34,8a44.3,44.3,0,0,0-11,2.54q1.8-1.45,3.51-3c.76-.68,2.52-1.67,2.58-2.81a.52.52,0,0,0-.28-.54c-3.57-1.51-9,4.13-8.77,7.52,0,0,0,0,0,.08a32.24,32.24,0,0,0-7.09,4.56h0a.24.24,0,0,0-.09.08A28.68,28.68,0,0,0,36.05,41c-.49.52-1,1.06-1.43,1.6a33.38,33.38,0,0,0,1.51-4.34,7.43,7.43,0,0,0,0-4.86.51.51,0,0,0-.86-.14,10.91,10.91,0,0,0-2.29,11,.3.3,0,0,0,.17.19,51.72,51.72,0,0,0-6.08,10.47A19.39,19.39,0,0,0,27,51.7c-.16-1.45-.31-3.54-1.58-4.46a.51.51,0,0,0-.71.08A7.77,7.77,0,0,0,25.78,58h0s0,0,0,0q-.84,2.23-1.5,4.5a42.65,42.65,0,0,0-1.5,7.39,14.77,14.77,0,0,0-3.54-7,.5.5,0,0,0-.89.21,9.77,9.77,0,0,0,4.13,9.76.21.21,0,0,0,.1,0,25.15,25.15,0,0,0,2.64,12.37c.15.28.6.13.48-.18"/><path class="cls-2" d="M112.44,83.25c0-.2,0-.4.07-.6l.18-.34h0a6.59,6.59,0,0,1-.26.94m-67,30a25.16,25.16,0,0,0,10.87,6.45.49.49,0,0,0,0,.12,9.76,9.76,0,0,0,7.93,7,.5.5,0,0,0,.48-.77,14.76,14.76,0,0,0-5.54-5.61,42.4,42.4,0,0,0,7.48.94c1.57.06,3.16.07,4.75,0,0,0,0,0,0,0h0a7.78,7.78,0,0,0,9.75,4.43.51.51,0,0,0,.3-.65c-.47-1.49-2.4-2.3-3.72-2.91a18.74,18.74,0,0,0-3-1.1,51.32,51.32,0,0,0,11.86-2.43.32.32,0,0,0,.13.23,10.89,10.89,0,0,0,11.14,1.33.51.51,0,0,0,.15-.86,7.49,7.49,0,0,0-4.61-1.57,33.59,33.59,0,0,0-4.59,0c.67-.27,1.32-.55,2-.85a29.72,29.72,0,0,0,2.68-1.41.3.3,0,0,0,.11-.06v0a32.82,32.82,0,0,0,6.59-5.27l.06.05c3.14,1.28,10.22-2,9.92-5.91a.52.52,0,0,0-.42-.45c-1.1-.29-2.6,1.05-3.48,1.55q-2,1.14-4,2.38a44.27,44.27,0,0,0,5.93-9.66c5.06.08,9.53-3.53,11.16-8.22a.53.53,0,0,0-.66-.7c-3.76,1.45-6.83,4.47-9.76,7.21a53.35,53.35,0,0,0,2.87-9.46c.69-1.67,1.74-3.18,2-5a7.11,7.11,0,0,0-.89-4.67.24.24,0,0,0-.08-.09c0-.45-.62-.8-.92-.33a13.16,13.16,0,0,0-2.17,4.79c-.3,2,.32,4.21.65,6.21,0,0,0,0,0,0A57.14,57.14,0,0,1,106,100.47a23.39,23.39,0,0,0-1.08-8.25.48.48,0,0,0-.89,0c-1.31,3.22-1.9,8,.11,11.06a.39.39,0,0,0,.23.17,33.94,33.94,0,0,1-8.8,9.85,19.22,19.22,0,0,0,3.18-8.33.49.49,0,0,0-.85-.39c-2.55,2.44-5,6.35-4.68,10a.29.29,0,0,0,.08.21,29.49,29.49,0,0,1-3.2,1.69,44,44,0,0,1-8.26,2.76c3-1.37,5.66-3.31,6.85-6.58a.48.48,0,0,0-.6-.64c-3.42,1.27-7.46,3.76-8.79,7.34a.43.43,0,0,0,0,.25l-.18.08a.3.3,0,0,0-.13.12,60.87,60.87,0,0,1-11.57.8c-.59,0-1.19,0-1.78-.09a14.27,14.27,0,0,0,6.36-2.7.45.45,0,0,0-.08-.76c-1.35-.66-3.17-.15-4.55.24a16.15,16.15,0,0,0-5.27,2.61.49.49,0,0,0-.16.2,34.88,34.88,0,0,1-9.16-2.75,11.87,11.87,0,0,0,7-1.45c.39-.22.16-.8-.21-.87-2.78-.57-6.62-.64-9.08,1h0a.42.42,0,0,0-.16,0,31.14,31.14,0,0,1-4.51-3.17c-.26-.21-.54.17-.32.39"/></svg>