<svg id="Calque_1" data-name="Calque 1" xmlns="http://www.w3.org/2000/svg" xmlns:xlink="http://www.w3.org/1999/xlink" viewBox="0 0 137.6 140.6"><defs><style>.cls-1{fill:none;}.cls-2{fill:#2d2c64;}.cls-3{clip-path:url(#clip-path);}</style><clipPath id="clip-path"><rect class="cls-1" x="33.14" y="27.27" width="71.33" height="91.64"/></clipPath></defs><title>Plan de travail 1 copie 2</title><path class="cls-2" d="M81.05,80.06a4.12,4.12,0,0,0-2.92-1.56H58a4.1,4.1,0,0,0-2.91,1.56,4.17,4.17,0,0,0-.91,3.19l3.38,23.61a3.88,3.88,0,0,0,3.81,3.35H74.77a3.84,3.84,0,0,0,3.81-3.29L82,83.24a4.18,4.18,0,0,0-.9-3.18"/><g class="cls-3"><path class="cls-2" d="M50.61,87.56a3.87,3.87,0,0,0-3.74.35l-9,6.22a3.86,3.86,0,0,0-1,5.36l7.79,11.29a3.85,3.85,0,0,0,5,1.18l3.37-1.88A3.85,3.85,0,0,0,55,106.19L52.86,90.56a3.81,3.81,0,0,0-2.25-3"/><path class="cls-2" d="M38.16,106.23a1.82,1.82,0,0,0-1.87-.67A1.78,1.78,0,0,0,34.92,107l-1.74,8.65a1.81,1.81,0,0,0,2.71,1.92l5.69-3.37a1.9,1.9,0,0,0,.87-1.22,1.87,1.87,0,0,0-.33-1.45Z"/></g><path class="cls-2" d="M98.16,94.13l-9-6.22a3.87,3.87,0,0,0-3.74-.35,3.83,3.83,0,0,0-2.26,3L81,106.19a3.84,3.84,0,0,0,1.93,3.89L86.3,112a3.84,3.84,0,0,0,5-1.18l7.79-11.29a3.85,3.85,0,0,0-1-5.36"/><path class="cls-2" d="M102.83,115.61,101.08,107a1.8,1.8,0,0,0-1.38-1.42,1.83,1.83,0,0,0-1.86.68l-4,5.27a1.83,1.83,0,0,0,.54,2.66l5.68,3.38a1.83,1.83,0,0,0,2.73-1.93"/><path class="cls-2" d="M54.91,62.71a17.67,17.67,0,0,0,11.77,4H70a17.59,17.59,0,0,0,11.76-4c5,.81,8.18,2.17,9.21,3.06-1.79,1.53-10,4-22.63,4s-20.85-2.49-22.62-4c1-.87,4.22-2.2,9.19-3m13.43-31.2c7.55,0,13.66,1.28,13.66,2.86s-6.11,2.86-13.66,2.86S54.68,36,54.68,34.37s6.12-2.86,13.66-2.86M87.91,51.06l.6-8.13h2.65a2.13,2.13,0,0,1,2.09,2.19l-.82,6.51c-.16,1.32-1.2,1.88-2.57,1.92-.59,0-2.36.17-2.36.17a13,13,0,0,0,.41-2.66M68.34,74.71c2.84,0,27.71-.24,27.71-8.73,0-3.79-4.94-5.93-10.67-7.15.22-.36.43-.75.63-1.13l3.93-.35a6.32,6.32,0,0,0,6.14-5.55l.79-6.74a5.61,5.61,0,0,0-1.56-4.59C93.87,38.87,91.88,39,90.58,39h-1.8l.38-5.55a.57.57,0,0,0,0-.13v-.17c0-3.22-9.32-5.84-20.83-5.84s-20.83,2.6-20.83,5.82v.21l1.26,17.53a17.91,17.91,0,0,0,2.53,8C45.57,60.05,40.62,62.19,40.62,66c0,8.49,24.89,8.73,27.72,8.73"/></svg>